<svg width="50" height="30" viewBox="0 0 50 30" fill="none" xmlns="http://www.w3.org/2000/svg">
<rect width="50" height="30" rx="4" fill="#00529C"/>
<path fill-rule="evenodd" clip-rule="evenodd" d="M14.8224 13.0145H17.2055C18.1705 13.0145 18.8899 13.3732 18.8899 14.1282C18.8899 14.6818 18.5564 14.9901 17.9771 15.1535V15.1659C18.6676 15.2858 19.0239 15.6004 19.0239 16.1348C19.0239 17.1857 17.9323 17.4058 17.0046 17.4058H14.8224V13.0145ZM16.2027 14.751H16.5891C17.0419 14.751 17.5098 14.6565 17.5098 14.2851C17.5098 13.8829 17.0642 13.8448 16.6035 13.8448H16.2027V14.751ZM16.2027 16.5755H16.6117C17.116 16.5755 17.6429 16.5125 17.6429 16.0657C17.6429 15.588 17.1013 15.5435 16.6261 15.5435H16.2027V16.5755Z" fill="white"/>
<path fill-rule="evenodd" clip-rule="evenodd" d="M20.836 13.0145H22.5286L24.5255 17.4058H23.011L22.6253 16.4686H20.6803L20.2718 17.4058H18.8689L20.836 13.0145ZM21.6826 13.9207H21.667L20.9994 15.6383H22.2983L21.6826 13.9207Z" fill="white"/>
<path fill-rule="evenodd" clip-rule="evenodd" d="M24.7177 13.0145H26.4769L28.2289 15.9968H28.2433L28.2214 13.0145H29.4838V17.4058H27.7688L25.957 14.4049H25.9427L25.987 17.4058H24.7177V13.0145Z" fill="white"/>
<path fill-rule="evenodd" clip-rule="evenodd" d="M29.9524 13.0145H31.3329V14.808H31.3478L32.9062 13.0145H34.5696L32.654 15.0591L34.7181 17.4058H32.9582L31.3478 15.4116H31.3329V17.4058H29.9524V13.0145Z" fill="white"/>
<path fill-rule="evenodd" clip-rule="evenodd" d="M36.4299 13.0145H38.813C39.7778 13.0145 40.4981 13.3732 40.4981 14.1282C40.4981 14.6818 40.1646 14.9901 39.5853 15.1535V15.1659C40.2756 15.2858 40.6319 15.6004 40.6319 16.1348C40.6319 17.1857 39.5406 17.4058 38.613 17.4058H36.4299V13.0145ZM37.8109 14.751H38.1966C38.6496 14.751 39.1169 14.6565 39.1169 14.2851C39.1169 13.8829 38.672 13.8448 38.212 13.8448H37.8109V14.751ZM37.8109 16.5755H38.2194C38.7237 16.5755 39.2511 16.5125 39.2511 16.0657C39.2511 15.588 38.7093 15.5435 38.2341 15.5435H37.8109V16.5755Z" fill="white"/>
<path fill-rule="evenodd" clip-rule="evenodd" d="M40.9377 13.0145H43.4024C44.3227 13.0145 45.0728 13.3667 45.0728 14.1221C45.0728 14.7071 44.7461 15.0972 44.0782 15.2291V15.2415C44.5226 15.3425 44.5529 15.6757 44.8127 16.2105L45.3177 17.4058H43.8778L43.5807 16.6136C43.2984 15.8585 43.1202 15.6693 42.6079 15.6693H42.3183V17.4058H40.9377V13.0145ZM42.3183 14.839H42.6823C43.1276 14.839 43.692 14.8262 43.692 14.3293C43.692 13.9207 43.209 13.8448 42.6823 13.8448H42.3183V14.839Z" fill="white"/>
<mask id="mask0_90_48" style="mask-type:luminance" maskUnits="userSpaceOnUse" x="2" y="10" width="46" height="10">
<path fill-rule="evenodd" clip-rule="evenodd" d="M2.85718 19.6235H47.0787V10.8H2.85718V19.6235Z" fill="white"/>
</mask>
<g mask="url(#mask0_90_48)">
<path fill-rule="evenodd" clip-rule="evenodd" d="M45.6981 17.4059H47.0787V13.0146H45.6981V17.4059Z" fill="white"/>
<path fill-rule="evenodd" clip-rule="evenodd" d="M11.6715 10.8H4.44524C3.56811 10.8 2.85706 11.4176 2.85706 12.1795V12.1941V18.2444C2.85706 18.9989 3.55501 19.6122 4.42084 19.6235H11.6677C12.545 19.6235 13.2563 19.0059 13.2563 18.2444L13.2597 12.1795C13.2597 11.4176 12.5488 10.8 11.6715 10.8V10.8ZM5.30429 18.9165L4.91001 18.9202C4.43281 18.9202 4.04599 18.5879 4.04599 18.1779L4.04373 18.1195V12.5185L4.04622 12.2169C4.06407 11.8201 4.41971 11.5007 4.88561 11.5007H5.68705C6.41324 11.5007 7.00229 12.0359 7.00229 12.6675C7.00229 12.9796 6.85791 13.263 6.62405 13.469L4.57923 15.2275L6.49571 16.8814C6.7429 17.0972 6.89225 17.381 6.89225 17.6918C6.89225 18.3683 6.1812 18.9165 5.30429 18.9165V18.9165ZM11.1961 18.911L7.62297 18.9096C7.62297 18.9096 8.03622 18.1529 8.03622 17.6845C8.03622 17.1135 7.81073 16.6031 7.45803 16.2655L6.23588 15.2097L7.48333 14.1174C7.85456 13.8216 8.1013 13.2965 8.1013 12.6985C8.1013 12.2249 7.94675 11.8054 7.69798 11.5007H8.56381C9.29023 11.5007 9.87928 12.0359 9.87928 12.6675C9.87928 12.9796 9.73512 13.263 9.50127 13.469L7.49553 15.2091L11.6613 18.8093C11.5294 18.8798 11.3629 18.911 11.1961 18.911V18.911ZM12.0687 17.7869L9.08327 15.2083L10.5052 13.9836C10.7948 13.677 10.9783 13.2149 10.9783 12.6985C10.9783 12.2219 10.8215 11.7922 10.5705 11.4873L11.2069 11.5034C11.6841 11.5034 12.071 11.8362 12.071 12.246L12.0687 17.7869Z" fill="white"/>
</g>
</svg>
