<svg width="50" height="30" viewBox="0 0 50 30" fill="none" xmlns="http://www.w3.org/2000/svg">
<rect width="50" height="30" rx="4" fill="#108EE9"/>
<path d="M10.793 10.2C11.962 10.2182 13.1222 10.5407 14.0596 11.1287C15.1628 11.8091 15.9596 12.8282 16.2754 13.946C16.6518 15.2414 16.3909 16.6622 15.543 17.7917C14.5514 19.1546 12.7161 20.0517 10.8096 20.0701H10.6455C9.23488 20.0504 7.84513 19.5708 6.83105 18.7478C5.68617 17.8407 5.02846 16.5352 5 15.2166V15.0906C5.01509 13.7439 5.69201 12.4079 6.87109 11.491C7.87692 10.6902 9.241 10.2245 10.626 10.2H10.793ZM34.9307 12.6902C35.7673 12.5551 36.664 12.8322 37.209 13.3796C37.6306 13.7695 37.8457 14.2975 37.8457 14.821C37.8482 15.7624 37.8457 16.703 37.8457 17.6443C37.4342 17.6464 37.0219 17.639 36.6104 17.6501C36.5945 16.7065 36.6109 15.7617 36.6025 14.8181C36.609 14.4375 36.3662 14.0578 35.9697 13.8689C35.5581 13.6619 35.0004 13.693 34.623 13.9421C34.2966 14.1472 34.1144 14.4888 34.1201 14.8289C34.1168 15.7675 34.1198 16.7056 34.1182 17.6443C33.7025 17.6429 33.2868 17.647 32.8711 17.6414C32.8894 16.6566 32.8621 15.6711 32.8838 14.6863C32.9205 13.7343 33.8066 12.8505 34.9307 12.6902ZM28.2539 12.6589C29.5314 12.6477 30.6533 13.5984 30.7041 14.6589C30.7174 15.2682 30.7149 15.8776 30.7129 16.4871V17.6433C30.2991 17.644 29.8857 17.6447 29.4727 17.6433L29.4688 16.573C28.9816 16.5751 28.4945 16.5753 28.0078 16.575C27.6671 16.5747 27.326 16.5744 26.9854 16.575C26.9841 16.708 26.9847 16.8412 26.9854 16.9744C26.9864 17.199 26.9883 17.4237 26.9805 17.6482C26.7056 17.6426 26.4306 17.6437 26.1562 17.6443C26.019 17.6446 25.8814 17.6448 25.7441 17.6443C25.7457 17.2844 25.7443 16.9242 25.7432 16.5642C25.7412 15.9344 25.7398 15.3047 25.752 14.6755C25.792 13.5941 26.9507 12.622 28.2539 12.6589ZM20.9277 12.6697C22.2384 12.7433 23.3668 13.6649 23.5469 14.7498C23.7644 15.7921 23.1067 16.9169 21.9717 17.3845C21.5451 17.57 21.0624 17.6469 20.585 17.6462C20.2567 17.6459 19.9286 17.6453 19.6006 17.6453C19.2726 17.6453 18.9444 17.6456 18.6162 17.6453V12.658C18.9108 12.6609 19.2062 12.6595 19.501 12.658C19.9765 12.6554 20.4524 12.6533 20.9277 12.6697ZM42.6729 12.6648C43.6835 12.7174 44.5804 13.3642 44.8604 14.1726C44.9636 14.4455 44.9687 14.7306 44.9736 15.0154C44.9764 15.1783 44.9788 15.3413 45 15.5017V17.6384C44.6826 17.6458 44.3652 17.6452 44.0479 17.6443C43.9422 17.644 43.8361 17.6433 43.7305 17.6433C43.7299 17.5285 43.7293 17.4135 43.7295 17.2986C43.73 17.0557 43.7314 16.8127 43.7246 16.5701C43.2221 16.5765 42.7188 16.5758 42.2158 16.575C41.8924 16.5744 41.5686 16.5736 41.2451 16.575C41.2447 16.753 41.2441 16.931 41.2441 17.1091C41.2441 17.2873 41.2446 17.4658 41.2441 17.6443H40.0029C40.0025 17.1848 40.002 16.7256 40.002 16.2664C40.002 15.8071 40.0024 15.3476 40.002 14.8884C39.9961 14.4461 40.1216 13.9964 40.4141 13.6248C40.8933 12.9976 41.7787 12.5934 42.6729 12.6648ZM13.9697 13.7947C13.4564 13.4377 12.7365 13.3357 12.0957 13.4617C11.6169 13.5611 11.157 13.7094 10.6973 13.8572C10.413 13.9486 10.1286 14.0399 9.83984 14.1199C9.31571 14.262 8.74142 14.343 8.20312 14.2107C8.02177 14.1713 7.85908 14.0956 7.69629 14.0203C7.60186 13.9766 7.50735 13.933 7.40918 13.8962C7.36497 14.4163 7.37103 14.9393 7.37695 15.4617C7.38062 15.7855 7.38425 16.1092 7.37598 16.4324C7.38055 16.4813 7.37873 16.533 7.37695 16.5847C7.37259 16.7122 7.36758 16.843 7.45703 16.947C7.8937 17.2193 8.45678 17.3262 8.99512 17.2947C9.58825 17.2551 10.1496 17.0858 10.71 16.9167C11.3989 16.709 12.0872 16.5015 12.8311 16.5359C13.1875 16.5416 13.5062 16.663 13.8232 16.7839C13.9002 16.8133 13.9775 16.8423 14.0547 16.8699C14.0765 16.338 14.0743 15.8056 14.0713 15.2732C14.0693 14.9117 14.0665 14.5496 14.0723 14.1882C14.0708 14.162 14.0712 14.1348 14.0713 14.1072C14.0715 13.9949 14.0713 13.8766 13.9697 13.7947ZM19.8535 13.7312C19.8621 14.5422 19.8599 15.3537 19.8574 16.1648C19.857 16.2998 19.8558 16.435 19.8555 16.5701C19.9875 16.5658 20.1221 16.5677 20.2568 16.5701C20.6341 16.5767 21.0154 16.5837 21.3623 16.446C22.0023 16.208 22.4045 15.6066 22.332 15.0242C22.2836 14.4391 21.7563 13.9038 21.0723 13.7722C20.798 13.7223 20.5174 13.7261 20.2373 13.7302C20.1092 13.7321 19.9808 13.7345 19.8535 13.7312ZM29.1738 14.1101C28.7296 13.6203 27.7637 13.6093 27.3037 14.0886C26.9655 14.3956 26.9749 14.8099 26.9844 15.2068C26.9868 15.3075 26.9887 15.4072 26.9854 15.5037C27.3163 15.5039 27.6483 15.5038 27.9795 15.5037C28.476 15.5034 28.9725 15.5034 29.4688 15.5046C29.4657 15.4084 29.469 15.3091 29.4717 15.2087C29.4821 14.8208 29.4923 14.4165 29.1738 14.1101ZM43.4316 14.1082C42.9833 13.6175 42.0123 13.6111 41.5557 14.0955C41.2243 14.4012 41.2337 14.812 41.2432 15.2058C41.2456 15.3068 41.2485 15.4069 41.2451 15.5037H43.7295C43.7258 15.405 43.7278 15.3029 43.7305 15.2C43.7403 14.8138 43.7506 14.4126 43.4316 14.1082Z" fill="white"/>
</svg>
