<svg width="50" height="30" viewBox="0 0 50 30" fill="none" xmlns="http://www.w3.org/2000/svg">
<rect width="50" height="30" rx="4" fill="white"/>
<path d="M8.0614 11.4881C8.53554 11.4233 9.02252 11.4306 9.4989 11.4706C9.94062 11.5472 10.3865 11.6329 10.7919 11.8046C11.6119 12.1332 12.31 12.6662 12.7753 13.3221C13.161 13.9283 13.4263 14.609 13.3866 15.3036C13.3976 16.7293 12.3219 18.0881 10.7987 18.6942C9.81124 19.0886 8.66246 19.1429 7.6073 18.9266C6.89349 18.7423 6.20454 18.4433 5.68445 17.9852C5.18919 17.5992 4.81531 17.1074 4.578 16.578C4.26845 15.9267 4.24039 15.2026 4.37195 14.5165C4.61265 13.4975 5.36205 12.5631 6.42273 12.0213C6.91639 11.7482 7.48435 11.5855 8.0614 11.4881ZM8.80261 13.2577C8.34293 13.2503 7.88102 13.2431 7.42859 13.3182C7.07141 13.3488 6.6809 13.4546 6.48327 13.7254C6.26517 13.9848 6.24221 14.3089 6.22058 14.6171C6.2188 14.6424 6.21659 14.6682 6.21472 14.6932C6.21027 14.7707 6.20245 14.8482 6.19421 14.9256C6.17753 15.0824 6.16106 15.2395 6.17566 15.3973C6.18653 15.5038 6.19337 15.6108 6.20105 15.7176C6.22024 15.9849 6.24028 16.2522 6.30945 16.5145C6.39508 16.845 6.74888 17.1017 7.13952 17.162C7.8678 17.2723 8.61008 17.2624 9.34753 17.2528C9.41495 17.2519 9.48235 17.2507 9.54968 17.2499C9.85144 17.2358 10.1536 17.2098 10.452 17.1698C10.8987 17.1208 11.2937 16.8155 11.3671 16.4393C11.4952 15.978 11.5174 15.5018 11.4794 15.0311C11.4076 14.7294 11.1537 14.457 10.8085 14.3465C10.653 14.2835 10.4805 14.2837 10.3114 14.284H9.22253C8.63979 14.2838 8.05692 14.2836 7.47448 14.286C7.4076 14.287 7.34496 14.2679 7.28308 14.2489C7.26023 14.2419 7.23761 14.2343 7.21472 14.2284C7.21305 14.123 7.2173 13.9656 7.38562 13.9628C7.8244 13.9544 8.26383 13.9574 8.703 13.9598C9.2812 13.9631 9.85934 13.9656 10.4364 13.9442C10.3736 13.6998 10.196 13.4445 9.8905 13.3768C9.61471 13.3148 9.32939 13.2837 9.04577 13.2616C8.96488 13.2607 8.8837 13.259 8.80261 13.2577ZM10.1796 15.5155C10.2311 15.388 10.4073 15.3385 10.5546 15.3719C10.6468 15.4194 10.7155 15.5 10.743 15.5878C10.6999 15.7613 10.6295 15.931 10.62 16.1102C10.5591 16.1323 10.5008 16.1582 10.4432 16.1864C10.4097 16.1699 10.3421 16.1374 10.3085 16.121C10.257 15.9216 10.1337 15.7238 10.1796 15.5155Z" fill="#01ACD7"/>
<path d="M17.7755 12.5812C18.2277 12.5342 18.7073 12.5184 19.1388 12.6603C19.4258 12.7417 19.6838 12.8838 19.9171 13.0441C19.9205 12.919 19.9199 12.7933 19.9191 12.6681C19.9188 12.6297 19.9182 12.5913 19.9181 12.5529C20.1075 12.5539 20.297 12.554 20.4864 12.5539C20.7488 12.5538 21.0112 12.5531 21.2736 12.5558V17.0051C21.2696 17.2048 21.2507 17.4049 21.172 17.5949C21.0029 18.1032 20.571 18.5388 20.0236 18.7941C19.3782 19.1066 18.5993 19.1441 17.8751 19.0676C17.134 18.9853 16.4499 18.676 15.9103 18.2472C16.0812 18.0772 16.2756 17.9252 16.4698 17.7736C16.5898 17.68 16.7098 17.5864 16.8243 17.4885C17.3398 17.8871 18.0732 18.0862 18.7667 17.9797C19.0874 17.9383 19.4054 17.8248 19.6153 17.6095C19.9285 17.3479 19.9176 16.9552 19.9083 16.6086C19.9079 16.5942 19.9077 16.5798 19.9073 16.5656C19.8321 16.6021 19.7626 16.6459 19.6935 16.6896C19.6195 16.7364 19.5453 16.7826 19.464 16.8205C18.8386 17.1285 18.0564 17.1235 17.379 16.9513C16.4235 16.6941 15.6708 15.9552 15.5538 15.1144C15.5192 14.7858 15.5161 14.446 15.6476 14.131C15.9376 13.3358 16.7969 12.7082 17.7755 12.5812ZM45.4777 12.6847C44.3003 14.7163 43.1211 16.7469 41.9415 18.7775C41.4205 18.8001 40.8981 18.7844 40.3771 18.7863C40.751 18.0871 41.1965 17.4157 41.5743 16.7179C40.8023 15.3674 39.9994 14.0289 39.2296 12.6779C39.7564 12.6779 40.2838 12.6756 40.8107 12.6799C40.8946 12.898 41.0377 13.0951 41.1486 13.3039C41.542 14.0331 41.9539 14.7558 42.3546 15.4826C42.8707 14.5511 43.3846 13.618 43.8917 12.6828C44.4201 12.6753 44.9487 12.6735 45.4777 12.6847ZM31.0323 12.5539C31.7886 12.5313 32.555 12.7971 33.0538 13.2785C34.0015 14.1437 33.945 15.6212 32.9611 16.4504C32.0569 17.2202 30.4558 17.2943 29.4503 16.6232C29.4506 16.807 29.4515 16.9912 29.4523 17.175C29.4546 17.7129 29.4568 18.2507 29.4464 18.7883C29.2974 18.7871 29.1483 18.7885 28.9991 18.7892C28.6783 18.7907 28.3574 18.7919 28.0372 18.7746C28.037 17.9042 28.0372 17.0337 28.0372 16.1633C28.0373 15.0026 28.0369 13.8415 28.0362 12.6808C28.4919 12.6747 28.9478 12.6761 29.4034 12.6808C29.4105 12.7577 29.417 12.8351 29.423 12.9123C29.4264 12.957 29.43 13.0022 29.4337 13.047C29.8507 12.6963 30.4536 12.5507 31.0323 12.5539ZM23.9484 12.6115C24.7438 12.477 25.6143 12.558 26.3068 12.9299C26.8335 13.197 27.235 13.63 27.4142 14.1242C27.6599 14.7736 27.5492 15.5169 27.089 16.0822C26.6316 16.6515 25.851 17.0002 25.045 17.0656C24.5485 17.0938 24.0343 17.0798 23.5646 16.9279C22.7867 16.7082 22.134 16.1692 21.9044 15.5031C21.6581 14.8786 21.7724 14.1635 22.1944 13.6105C22.5852 13.0933 23.2402 12.7399 23.9484 12.6115ZM34.9044 13.006C35.5801 12.588 36.4629 12.4924 37.2775 12.5822C37.8451 12.6603 38.4289 12.8644 38.7726 13.2697C38.9842 13.5359 39.1243 13.851 39.1193 14.174C39.1188 14.5721 39.1191 14.9702 39.1193 15.3683C39.1194 15.8994 39.1196 16.4308 39.1183 16.9621C38.7936 16.9578 38.4687 16.9583 38.1446 16.9592C38.0425 16.9594 37.9401 16.96 37.838 16.9601C37.8363 16.8807 37.837 16.8011 37.837 16.7219C37.837 16.6427 37.8367 16.5636 37.8351 16.4845C37.539 16.8056 37.0715 16.9741 36.6075 17.047C35.9368 17.1218 35.1832 17.0777 34.6486 16.6916C34.0011 16.242 34.0041 15.274 34.7042 14.8625C35.2706 14.5395 35.9625 14.4571 36.628 14.3781C36.6737 14.3727 36.7194 14.367 36.7648 14.3615C36.7979 14.3556 36.8316 14.3506 36.8653 14.3449C37.1275 14.3003 37.4023 14.2527 37.6046 14.0978C37.7131 13.8806 37.5244 13.6528 37.2765 13.5851C36.9927 13.5128 36.6892 13.4999 36.3976 13.5422C35.9472 13.6033 35.5637 13.899 35.4532 14.2707C35.1984 14.2409 34.9466 14.1956 34.6954 14.1496C34.5025 14.1142 34.3089 14.0789 34.1144 14.051C34.1804 13.625 34.5144 13.2665 34.9044 13.006ZM37.7648 14.8781C37.4411 15.0837 37.052 15.1435 36.6622 15.2033C36.3388 15.2529 36.0146 15.3024 35.7267 15.4357C35.5841 15.5081 35.4414 15.6529 35.5148 15.8C35.564 16.0092 35.8511 16.0733 36.0694 16.0842C36.5951 16.1124 37.1904 16.052 37.5812 15.7248C37.7833 15.5521 37.7751 15.3097 37.7667 15.0783C37.7642 15.0099 37.7617 14.9425 37.7648 14.8781ZM26.0997 14.7834C26.1335 14.0255 25.1328 13.415 24.2814 13.6388C24.0833 13.6864 23.8977 13.7694 23.7355 13.8752C23.1737 14.2473 23.0365 14.9828 23.4366 15.4806C23.8941 16.1139 25.0743 16.2386 25.6935 15.7082C25.9963 15.4745 26.14 15.1253 26.0997 14.7834ZM31.8536 13.9094C31.5054 13.6517 31.0015 13.5563 30.5509 13.633C30.1139 13.7059 29.664 13.9273 29.5167 14.299C29.4426 14.4477 29.4473 14.6078 29.4523 14.7668C29.4545 14.8368 29.4569 14.9068 29.4523 14.9758C29.4315 15.2382 29.5559 15.5132 29.7921 15.6887C30.3468 16.1421 31.3336 16.1508 31.8917 15.6974C32.4482 15.2258 32.4437 14.3599 31.8536 13.9094ZM18.2316 13.6144C17.9412 13.6506 17.6435 13.7147 17.4191 13.882C16.726 14.3269 16.7402 15.328 17.4366 15.7668C17.9012 16.0776 18.5576 16.0669 19.09 15.8986C19.5305 15.7575 19.9149 15.3915 19.8663 14.9767C19.8627 14.9092 19.8646 14.8398 19.8663 14.7707C19.8712 14.5735 19.8762 14.3745 19.7569 14.1984C19.4608 13.7634 18.8099 13.5406 18.2316 13.6144Z" fill="#010101"/>
</svg>
