<svg width="50" height="30" viewBox="0 0 50 30" fill="none" xmlns="http://www.w3.org/2000/svg">
<rect width="50" height="30" rx="4" fill="#003D79"/>
<path fill-rule="evenodd" clip-rule="evenodd" d="M3.61665 15.8885C3.61665 15.3505 3.60537 14.899 3.57153 14.4965H4.74537L4.80041 15.1881H4.83334C5.09939 14.8226 5.58593 14.3904 6.49349 14.3904C7.20187 14.3904 7.75518 14.7369 7.98717 15.2552H8.00995C8.19841 14.996 8.41901 14.8041 8.67334 14.6692C8.97244 14.487 9.31563 14.3904 9.7583 14.3904C10.6545 14.3904 11.5613 14.9184 11.5613 16.4166V19.1721H10.2336V16.5897C10.2336 15.812 9.9242 15.3505 9.27165 15.3505C8.80608 15.3505 8.46266 15.6391 8.31977 15.9753C8.28616 16.0902 8.253 16.2344 8.253 16.3678V19.1721H6.92477V16.4644C6.92477 15.812 6.62646 15.3505 5.99556 15.3505C5.48646 15.3505 5.14383 15.6968 5.0218 16.0225C4.96608 16.1385 4.94375 16.2725 4.94375 16.4067V19.1721H3.61665V15.8885Z" fill="white"/>
<path fill-rule="evenodd" clip-rule="evenodd" d="M16.7346 18.049C16.7346 18.4713 16.7567 18.8835 16.8121 19.1723H15.5833L15.4951 18.654H15.4615C15.1297 19.0192 14.5654 19.278 13.8683 19.278C12.7835 19.278 12.1752 18.5968 12.1752 17.8859C12.1752 16.7045 13.3809 16.1097 15.373 16.1192V16.0421C15.373 15.7348 15.229 15.2262 14.2774 15.2262C13.746 15.2262 13.1925 15.3704 12.8275 15.5716L12.5616 14.8042C12.9607 14.5925 13.6585 14.3906 14.5099 14.3906C16.2369 14.3906 16.7346 15.3418 16.7346 16.3591V18.049ZM15.4061 16.8874C14.4436 16.868 13.5253 17.0504 13.5253 17.7611C13.5253 18.2215 13.8683 18.4331 14.3 18.4331C14.8416 18.4331 15.2406 18.1258 15.3619 17.7898C15.3949 17.7034 15.4061 17.607 15.4061 17.5305V16.8874Z" fill="white"/>
<path fill-rule="evenodd" clip-rule="evenodd" d="M17.6757 15.8885C17.6757 15.3505 17.6635 14.899 17.6312 14.4965H18.8254L18.8921 15.1973H18.9248C19.1575 14.8329 19.744 14.3904 20.6401 14.3904C21.5811 14.3904 22.5548 14.9184 22.5548 16.3974V19.1721H21.1939V16.5321C21.1939 15.8596 20.9062 15.3505 20.1646 15.3505C19.6224 15.3505 19.2463 15.6867 19.102 16.0421C19.0585 16.148 19.047 16.2923 19.047 16.4258V19.1721H17.6757V15.8885Z" fill="white"/>
<path fill-rule="evenodd" clip-rule="evenodd" d="M28.4561 12.6178V17.8565C28.4561 18.3365 28.4778 18.8559 28.5 19.1723H27.2827L27.2282 18.4331H27.2056C26.8845 18.9519 26.2306 19.278 25.4458 19.278C24.1627 19.278 23.1442 18.3277 23.1442 16.8874C23.133 15.3222 24.2617 14.3906 25.5563 14.3906C26.2975 14.3906 26.8292 14.6598 27.0722 15.0058H27.0947V12.6178H28.4561ZM27.0947 16.445C27.0947 16.35 27.0833 16.2342 27.062 16.1385C26.94 15.6776 26.5082 15.3029 25.8885 15.3029C25.0143 15.3029 24.5273 15.9754 24.5273 16.8492C24.5273 17.7034 25.0143 18.3277 25.8774 18.3277C26.4305 18.3277 26.9177 18.0013 27.0503 17.4926C27.0833 17.3865 27.0947 17.2714 27.0947 17.1462V16.445Z" fill="white"/>
<path fill-rule="evenodd" clip-rule="evenodd" d="M29.4178 19.172H30.7914V14.4967H29.4178V19.172Z" fill="white"/>
<path fill-rule="evenodd" clip-rule="evenodd" d="M31.7533 16.0038C31.7533 15.3704 31.7418 14.9185 31.7087 14.4964H32.8931L32.9364 15.389H32.9823C33.2474 14.7266 33.8783 14.4964 34.4535 14.4964C34.586 14.4964 34.6634 14.4767 34.7744 14.4964V15.5337C34.6634 15.5145 34.5419 15.4953 34.3759 15.4953C33.7231 15.4953 33.2801 15.8598 33.1586 16.3876C33.137 16.4932 33.1147 16.6186 33.1147 16.7536V19.1723H31.7533V16.0038Z" fill="white"/>
<path fill-rule="evenodd" clip-rule="evenodd" d="M35.4052 19.172H36.7767V14.4967H35.4052V19.172Z" fill="white"/>
<path fill-rule="evenodd" clip-rule="evenodd" d="M35.0806 8.84381C34.2568 9.25774 32.3135 10.2247 31.5881 10.5849V10.5849C31.146 10.7803 30.1221 10.8656 29.5429 10.1881V10.1881C29.5326 10.1758 28.7726 9.35198 28.7416 9.32096V9.32096C28.7198 9.29904 28.2286 8.66679 27.1339 8.64703V8.64703C26.9722 8.6437 26.168 8.63998 25.3834 9.0269V9.0269C24.3405 9.54387 21.915 10.747 21.915 10.747V10.747C21.9144 10.747 21.9144 10.7481 21.9131 10.7481V10.7481C20.9161 11.243 20.1393 11.6284 20.1393 11.6284V11.6284L21.0571 12.6064C21.4865 13.069 22.4547 13.4269 23.2944 13.0086V13.0086C23.2944 13.0086 26.3969 11.4498 26.4083 11.4453V11.4453C27.75 10.8068 28.7854 10.8068 29.4726 11.0444V11.0444C30.0894 11.2705 30.626 11.834 30.626 11.834V11.834C30.626 11.834 31.3273 12.5881 31.451 12.72V12.72C31.85 13.1461 32.5104 12.9787 32.5104 12.9787V12.9787C32.5104 12.9787 32.7552 12.9546 33.1241 12.7646V12.7646C33.1241 12.7646 36.1293 11.2527 36.1312 11.2522V11.2522C37.0854 10.7665 37.9606 10.6758 38.4079 10.7115V10.7115C39.8089 10.822 40.2441 11.6711 40.8516 12.2636V12.2636C41.2093 12.612 41.5321 12.8099 42.0257 12.7999V12.7999C42.3501 12.7939 42.7165 12.6233 42.7706 12.5925V12.5925L46.3692 10.7905C46.3692 10.7905 46 10.308 45.2438 9.55728V9.55728C44.5669 8.88746 43.8481 9.19051 43.2749 9.43682V9.43682C43.0341 9.54015 42.1616 10.0437 41.2973 10.395V10.395C40.6814 10.6452 39.7967 10.57 39.3119 10.0502V10.0502C39.2829 10.0186 38.4985 9.19462 38.416 9.09325V9.09325C38.0995 8.74919 37.4818 8.44104 36.6901 8.44104V8.44104C36.2088 8.44104 35.6626 8.55494 35.0806 8.84381" fill="url(#paint0_linear_90_29)"/>
<defs>
<linearGradient id="paint0_linear_90_29" x1="20.1393" y1="13.1939" x2="46.3692" y2="13.1939" gradientUnits="userSpaceOnUse">
<stop stop-color="#FFCA06"/>
<stop offset="0.330844" stop-color="#FBAA18"/>
<stop offset="0.694742" stop-color="#FFC907"/>
<stop offset="1" stop-color="#FAA619"/>
</linearGradient>
</defs>
</svg>
